# xmcd
#
# Track frame offsets:
#	150
#	10441
#	22558
#	42698
#	60955
#	78468
#	94338
#	108204
#	135841
#	148306
#	174724
#	200306
#	220022
#
# Disc length: 3181 seconds
#
# Revision: 0
# Processed by: cddbd v1.5.2PL0 Copyright (c) Steve Scherf et al.
# Submitted via: EasyCDDAExtractor 9.1.1.2
#
DISCID=a90c6b0d
DTITLE=Playdough - Don't Drink the Water
DYEAR=2006
DGENRE=Hip-Hop
TTITLE0=Up to date
TTITLE1=Dang!
TTITLE2=Emergency Broadcast
TTITLE3=You Sound Funny
TTITLE4=Tip your hat
TTITLE5=Sandal Sole
TTITLE6=Saddle Up
TTITLE7=Leave You
TTITLE8=Huh!
TTITLE9=Don't Drink The Water
TTITLE10=The Difference
TTITLE11=Ghetto Blaster
TTITLE12=Daisy Proof
EXTD=
EXTT0=
EXTT1=
EXTT2=
EXTT3=
EXTT4=
EXTT5=
EXTT6=
EXTT7=
EXTT8=
EXTT9=
EXTT10=
EXTT11=
EXTT12=
PLAYORDER=
